<svg xmlns="http://www.w3.org/2000/svg" x="0px" y="0px" width="100" height="100" viewBox="0 0 48 48">
<line x1="39.5" x2="39.5" y1="27" y2="44" fill="none" stroke="#f9a825" stroke-miterlimit="10" stroke-width="3"></line><line x1="8.5" x2="8.5" y1="27" y2="44" fill="none" stroke="#f9a825" stroke-miterlimit="10" stroke-width="3"></line><path fill="#fbc02d" d="M44,23c0,2,0,7-3,7c-1.5,0-2.5-0.5-3-1v15H10V29c-0.5,0.5-1.5,1-3,1c-2.956,0-3-5-3-7 c0-8,7-18,20-18S44,15,44,23z"></path><path fill="#821616" d="M24,26c-2.284,0-4.362-0.762-5.949-2.008C18.418,27.941,20.939,31,24,31s5.582-3.059,5.949-7.008 C28.362,25.238,26.284,26,24,26z"></path><path fill="#821616" d="M24,26c-2.284,0-4.362-0.762-5.949-2.008C18.418,27.941,20.939,31,24,31s5.582-3.059,5.949-7.008 C28.362,25.238,26.284,26,24,26z"></path><circle cx="16" cy="17" r="5" fill="#212121"></circle><circle cx="32" cy="17" r="5" fill="#212121"></circle><g><path fill="#fafafa" d="M36.579,18.942C36.839,18.344,37,17.694,37,17c0-2.761-2.239-5-5-5 c-0.209,0-0.407,0.037-0.609,0.061C31.14,12.658,31,13.312,31,14c0,2.761,2.239,5,5,5C36.198,19,36.387,18.964,36.579,18.942z"></path><path fill="#fafafa" d="M20.579,18.942C20.839,18.344,21,17.694,21,17c0-2.761-2.239-5-5-5 c-0.209,0-0.407,0.037-0.609,0.061C15.14,12.658,15,13.312,15,14c0,2.761,2.239,5,5,5C20.198,19,20.387,18.964,20.579,18.942z"></path></g><g><path fill="#e57373" d="M24,31c0.646,0,1.264-0.146,1.846-0.398C25.937,30.411,26,30.211,26,30c0-1.105-1.343-2-3-2 c-1.243,0-2.309,0.504-2.764,1.222C21.264,30.333,22.572,31,24,31z"></path></g><g><path fill="#ffa000" d="M24,16.01C12.54,16.29,13.553,26.08,14.598,29c0.637,1.77,1.964,3,3.134,3 c3.134,0,3.677-5.08,4.179-8c0.198-1.23,1.16-1.72,2.089-1.84c0.93,0.12,1.891,0.61,2.089,1.84c0.501,2.92,1.045,8,4.179,8 c1.17,0,2.497-1.23,3.134-3C34.447,26.08,35.46,16.29,24,16.01z"></path><ellipse cx="24" cy="22" fill="#212121" rx="4" ry="2"></ellipse></g>
</svg>